<?xml version="1.0" standalone="no"?>
<!DOCTYPE svg PUBLIC "-//W3C//DTD SVG 20010904//EN"
 "http://www.w3.org/TR/2001/REC-SVG-20010904/DTD/svg10.dtd">
<svg version="1.0" xmlns="http://www.w3.org/2000/svg"
 width="1280.000000pt" height="878.000000pt" viewBox="0 0 1280.000000 878.000000"
 preserveAspectRatio="xMidYMid meet">
<metadata>
Created by potrace 1.15, written by Peter Selinger 2001-2017
</metadata>
<g transform="translate(0.000000,878.000000) scale(0.100000,-0.100000)"
fill="#000000" stroke="none">
<path d="M6180 8763 c-25 -8 -50 -19 -55 -24 -6 -4 -182 -13 -390 -19 -582
-16 -780 -27 -1002 -56 l-111 -14 -100 60 c-86 52 -106 60 -149 60 -114 0
-269 -43 -867 -240 -232 -76 -502 -162 -601 -190 -436 -124 -883 -270 -1011
-330 -45 -21 -109 -56 -142 -79 -55 -37 -61 -44 -56 -69 3 -15 11 -62 18 -104
l13 -77 -36 -12 c-91 -29 -185 -95 -243 -170 -7 -9 -38 -25 -68 -34 -74 -23
-157 -70 -319 -180 -75 -51 -175 -116 -223 -144 -58 -34 -117 -81 -180 -144
-51 -51 -115 -110 -143 -132 -78 -61 -124 -106 -158 -155 -17 -25 -45 -62 -64
-82 -18 -21 -76 -125 -129 -230 -53 -106 -109 -211 -124 -233 l-28 -40 -7
-240 c-12 -392 16 -506 223 -922 77 -155 92 -179 156 -242 l71 -71 213 69 212
68 10 -41 c70 -285 266 -739 410 -951 l73 -107 -17 -36 c-10 -20 -76 -139
-147 -264 -72 -125 -139 -249 -151 -275 -41 -93 -23 -216 101 -667 39 -142 71
-276 71 -298 0 -26 -15 -73 -42 -132 l-41 -91 -5 -160 c-6 -241 11 -293 188
-545 48 -69 99 -145 113 -170 40 -69 187 -220 263 -272 225 -150 507 -236 734
-225 203 10 533 121 710 240 66 44 228 206 252 252 11 21 44 64 73 95 71 74
205 339 205 405 0 24 3 51 6 60 4 9 105 65 225 125 l218 110 108 -49 c59 -27
187 -85 283 -129 179 -82 2019 -922 2525 -1152 154 -71 468 -214 699 -319
l418 -191 241 141 c133 78 257 154 277 169 19 15 224 139 455 275 231 136 513
304 628 373 l207 127 0 95 c1 52 7 122 15 155 37 152 10 225 -133 364 -150
146 -563 510 -937 827 -412 348 -498 425 -488 434 28 25 767 399 776 393 13
-7 9 -4 1174 -931 l782 -623 478 292 c263 161 588 359 723 441 135 82 261 166
282 186 33 33 42 57 97 241 l61 204 -132 196 c-72 108 -314 463 -536 790 -223
327 -500 739 -617 915 -117 177 -247 368 -289 425 -100 133 -154 218 -199 312
-22 45 -61 103 -96 142 -62 69 -122 146 -160 209 l-23 38 40 102 c84 219 106
352 83 518 -29 219 -122 360 -311 472 -226 135 -319 150 -547 88 -43 -11 -100
-34 -128 -50 -132 -76 -116 -71 -174 -50 -28 11 -82 23 -120 26 -67 6 -69 8
-75 37 -3 16 -6 43 -6 59 0 17 -8 42 -18 56 -10 15 -31 63 -46 107 -57 164
-212 384 -348 494 -35 28 -98 69 -140 91 -42 23 -80 45 -83 50 -4 6 -64 10
-140 10 -132 0 -135 -1 -258 -43 l-125 -44 -17 30 c-13 22 -46 43 -129 82 -87
41 -118 61 -145 94 -71 90 -147 125 -306 140 -61 6 -169 32 -335 80 -233 67
-481 118 -660 136 -50 5 -77 14 -116 40 -85 55 -128 65 -282 65 -97 -1 -150
-5 -182 -17z"/>
</g>
</svg>
